<?xml version="1.0" standalone="no"?>
<!DOCTYPE svg PUBLIC "-//W3C//DTD SVG 20010904//EN"
 "http://www.w3.org/TR/2001/REC-SVG-20010904/DTD/svg10.dtd">
<svg version="1.0" xmlns="http://www.w3.org/2000/svg"
 width="512.000000pt" height="512.000000pt" viewBox="0 0 512.000000 512.000000"
 preserveAspectRatio="xMidYMid meet">
<metadata>
Created by potrace 1.11, written by Peter Selinger 2001-2013
</metadata>
<g transform="translate(0.000000,512.000000) scale(0.100000,-0.100000)"
fill="#000000" stroke="none">
<path d="M2320 5110 c-502 -52 -982 -248 -1365 -557 -288 -232 -517 -518 -684
-854 -124 -249 -204 -502 -247 -784 -26 -169 -26 -541 0 -710 71 -465 260
-899 543 -1250 232 -288 518 -517 854 -684 249 -124 502 -204 784 -247 169
-26 541 -26 710 0 465 71 899 260 1250 543 288 232 517 518 684 854 124 249
204 502 247 784 26 169 26 541 0 710 -71 465 -260 899 -543 1250 -232 288
-518 517 -854 684 -246 123 -506 205 -779 246 -124 19 -478 28 -600 15z m1882
-1344 c159 -34 279 -129 331 -263 9 -23 21 -82 28 -130 30 -238 -91 -420 -323
-488 l-57 -16 87 -78 c227 -203 303 -322 338 -525 36 -203 -9 -393 -131 -554
-306 -405 -1034 -499 -1328 -172 -98 109 -141 235 -140 410 0 98 4 127 27 194
53 157 167 310 268 360 74 37 168 37 204 1 24 -24 25 -30 19 -88 -4 -34 -19
-109 -33 -167 -49 -203 -31 -362 48 -434 51 -46 105 -60 206 -53 224 16 347
152 332 369 -10 136 -100 265 -330 473 -228 206 -310 358 -309 575 0 183 49
310 161 420 153 150 380 212 602 166z m-2207 -7 c434 -60 735 -315 833 -704
37 -144 45 -237 39 -434 -5 -148 -11 -207 -30 -291 -66 -279 -169 -473 -341
-645 -241 -240 -548 -355 -911 -343 -87 3 -161 12 -223 27 l-92 23 -18 -22
c-25 -31 -87 -41 -177 -30 -103 13 -149 40 -179 104 -14 28 -27 69 -31 91 -6
36 -13 44 -77 84 -175 110 -283 224 -276 292 3 32 5 34 46 37 23 2 97 -10 168
-27 151 -37 154 -37 154 -7 0 74 67 375 126 566 45 144 150 412 216 549 57
120 119 189 185 209 54 16 75 6 96 -46 41 -101 36 -150 -63 -602 -107 -488
-159 -798 -136 -811 31 -19 223 -43 346 -43 123 0 141 2 202 26 248 98 434
343 510 670 19 79 22 122 22 293 -1 183 -3 208 -27 297 -60 227 -183 363 -372
414 -175 47 -371 17 -810 -127 -309 -101 -409 -92 -346 29 87 168 508 383 836
425 66 9 258 6 330 -4z"/>
<path d="M3967 3460 c-52 -14 -108 -43 -136 -74 -23 -24 -23 -28 -12 -68 24
-79 81 -174 161 -265 43 -50 85 -95 91 -99 16 -9 89 71 128 141 63 111 83 240
45 292 -44 61 -181 97 -277 73z"/>
</g>
</svg>
